<mxfile host="app.diagrams.net" modified="2021-02-26T07:10:09.239Z" agent="5.0 (Windows NT 10.0; Win64; x64) AppleWebKit/537.36 (KHTML, like Gecko) Chrome/88.0.4324.182 Safari/537.36" etag="9XNkN88uob1bfkjwaPT0" version="14.4.2" type="github">
  <diagram id="6aZPbNo76P8Zh9FayG7Q" name="企業體合併">
    <mxGraphModel dx="1730" dy="820" grid="1" gridSize="10" guides="1" tooltips="1" connect="1" arrows="1" fold="1" page="1" pageScale="1" pageWidth="827" pageHeight="1169" math="0" shadow="0">
      <root>
        <mxCell id="0" />
        <mxCell id="1" parent="0" />
        <mxCell id="sL4LDpN6sf0cQuzgm8Oe-42" value="client" style="swimlane;whiteSpace=wrap" vertex="1" parent="1">
          <mxGeometry x="690" y="410" width="614.5" height="520" as="geometry" />
        </mxCell>
        <mxCell id="sL4LDpN6sf0cQuzgm8Oe-43" value="" style="ellipse;shape=startState;fillColor=#000000;strokeColor=#ff0000;" vertex="1" parent="sL4LDpN6sf0cQuzgm8Oe-42">
          <mxGeometry x="265.63" y="40" width="30" height="30" as="geometry" />
        </mxCell>
        <mxCell id="sL4LDpN6sf0cQuzgm8Oe-44" value="在企業體篩選出來的列表中，&#xa;於查詢作業欄位中點選&#xa;「● EBS查詢」功能。" style="rounded=1;" vertex="1" parent="sL4LDpN6sf0cQuzgm8Oe-42">
          <mxGeometry x="200.63" y="100" width="160" height="70" as="geometry" />
        </mxCell>
        <mxCell id="sL4LDpN6sf0cQuzgm8Oe-45" value="" style="endArrow=open;strokeColor=#FF0000;endFill=1;rounded=0;entryX=0.5;entryY=0;entryDx=0;entryDy=0;" edge="1" parent="sL4LDpN6sf0cQuzgm8Oe-42" source="sL4LDpN6sf0cQuzgm8Oe-44" target="sL4LDpN6sf0cQuzgm8Oe-61">
          <mxGeometry relative="1" as="geometry">
            <mxPoint x="250.63" y="208" as="targetPoint" />
            <Array as="points" />
          </mxGeometry>
        </mxCell>
        <mxCell id="sL4LDpN6sf0cQuzgm8Oe-46" style="edgeStyle=none;rounded=0;orthogonalLoop=1;jettySize=auto;html=1;exitX=0.5;exitY=1;exitDx=0;exitDy=0;entryX=0.5;entryY=0;entryDx=0;entryDy=0;endArrow=classic;endFill=1;strokeColor=#FF0000;" edge="1" parent="sL4LDpN6sf0cQuzgm8Oe-42" source="sL4LDpN6sf0cQuzgm8Oe-43" target="sL4LDpN6sf0cQuzgm8Oe-44">
          <mxGeometry relative="1" as="geometry">
            <mxPoint x="280.63" y="172" as="sourcePoint" />
          </mxGeometry>
        </mxCell>
        <mxCell id="sL4LDpN6sf0cQuzgm8Oe-49" value="確認" style="endArrow=open;strokeColor=#FF0000;endFill=1;rounded=0;exitX=1;exitY=0.5;exitDx=0;exitDy=0;" edge="1" parent="sL4LDpN6sf0cQuzgm8Oe-42" source="sL4LDpN6sf0cQuzgm8Oe-61">
          <mxGeometry relative="1" as="geometry">
            <mxPoint x="350.63" y="233" as="sourcePoint" />
            <mxPoint x="450.63" y="233" as="targetPoint" />
            <Array as="points" />
          </mxGeometry>
        </mxCell>
        <mxCell id="sL4LDpN6sf0cQuzgm8Oe-50" value="1.使用者身分&lt;br&gt;2.企業體PK" style="html=1;rounded=0;align=center;fillColor=#f5f5f5;strokeColor=#666666;fontColor=#333333;" vertex="1" parent="sL4LDpN6sf0cQuzgm8Oe-42">
          <mxGeometry x="450.63" y="208" width="80" height="50" as="geometry" />
        </mxCell>
        <mxCell id="sL4LDpN6sf0cQuzgm8Oe-61" value="確認執行EBS查詢功能" style="rhombus;whiteSpace=wrap;html=1;fillColor=#ffffc0;strokeColor=#ff0000;rounded=0;align=left;" vertex="1" parent="sL4LDpN6sf0cQuzgm8Oe-42">
          <mxGeometry x="215.63" y="202" width="130" height="62" as="geometry" />
        </mxCell>
        <mxCell id="sL4LDpN6sf0cQuzgm8Oe-62" value="取消" style="endArrow=open;strokeColor=#FF0000;endFill=1;rounded=0;exitX=0;exitY=0.5;exitDx=0;exitDy=0;entryX=0;entryY=0.5;entryDx=0;entryDy=0;" edge="1" parent="sL4LDpN6sf0cQuzgm8Oe-42" source="sL4LDpN6sf0cQuzgm8Oe-61" target="sL4LDpN6sf0cQuzgm8Oe-43">
          <mxGeometry x="-0.195" relative="1" as="geometry">
            <mxPoint x="170.63" y="233" as="sourcePoint" />
            <mxPoint x="170.63" y="110" as="targetPoint" />
            <Array as="points">
              <mxPoint x="170.63" y="233" />
              <mxPoint x="170.63" y="55" />
            </Array>
            <mxPoint as="offset" />
          </mxGeometry>
        </mxCell>
        <mxCell id="sL4LDpN6sf0cQuzgm8Oe-162" value="瀏覽EBS內部帳號內容&#xa;及EBS服務項目查詢結果" style="rounded=1;" vertex="1" parent="sL4LDpN6sf0cQuzgm8Oe-42">
          <mxGeometry x="200.63" y="310" width="174.5" height="50" as="geometry" />
        </mxCell>
        <mxCell id="sL4LDpN6sf0cQuzgm8Oe-101" style="edgeStyle=none;rounded=0;orthogonalLoop=1;jettySize=auto;html=1;endArrow=classic;endFill=1;strokeColor=#FF0000;" edge="1" parent="sL4LDpN6sf0cQuzgm8Oe-42" source="sL4LDpN6sf0cQuzgm8Oe-162" target="sL4LDpN6sf0cQuzgm8Oe-102">
          <mxGeometry relative="1" as="geometry">
            <mxPoint x="280.63" y="430" as="targetPoint" />
            <mxPoint x="280.63" y="400" as="sourcePoint" />
          </mxGeometry>
        </mxCell>
        <mxCell id="sL4LDpN6sf0cQuzgm8Oe-102" value="" style="ellipse;html=1;shape=endState;fillColor=#000000;strokeColor=#ff0000;align=center;" vertex="1" parent="sL4LDpN6sf0cQuzgm8Oe-42">
          <mxGeometry x="270.69" y="420" width="34.37" height="30" as="geometry" />
        </mxCell>
        <mxCell id="sL4LDpN6sf0cQuzgm8Oe-86" style="rounded=0;orthogonalLoop=1;jettySize=auto;html=1;entryX=-0.002;entryY=0.005;entryDx=0;entryDy=0;entryPerimeter=0;strokeColor=#FF0000;" edge="1" parent="1" source="sL4LDpN6sf0cQuzgm8Oe-87" target="sL4LDpN6sf0cQuzgm8Oe-42">
          <mxGeometry relative="1" as="geometry" />
        </mxCell>
        <mxCell id="sL4LDpN6sf0cQuzgm8Oe-87" value="&lt;font style=&quot;font-size: 12px&quot;&gt;&lt;span style=&quot;color: rgb(68 , 68 , 68)&quot;&gt;此功能內容在:&lt;br&gt;help_custom_base.pdf的70頁&lt;br&gt;&lt;/span&gt;&lt;/font&gt;" style="shape=note;whiteSpace=wrap;html=1;backgroundOutline=1;darkOpacity=0.05;rounded=1;size=20;fillColor=#f8cecc;strokeColor=#b85450;align=left;verticalAlign=top;" vertex="1" parent="1">
          <mxGeometry x="430" y="422" width="240" height="60" as="geometry" />
        </mxCell>
        <mxCell id="sL4LDpN6sf0cQuzgm8Oe-98" value="server" style="swimlane;whiteSpace=wrap" vertex="1" parent="1">
          <mxGeometry x="1304.5" y="410" width="260" height="520" as="geometry">
            <mxRectangle x="1094.5" y="180" width="70" height="23" as="alternateBounds" />
          </mxGeometry>
        </mxCell>
        <mxCell id="sL4LDpN6sf0cQuzgm8Oe-99" value="查詢對應企業體之EBS資料" style="rounded=1;" vertex="1" parent="sL4LDpN6sf0cQuzgm8Oe-98">
          <mxGeometry x="55.5" y="208" width="174.5" height="50" as="geometry" />
        </mxCell>
        <mxCell id="sL4LDpN6sf0cQuzgm8Oe-103" value="" style="endArrow=open;strokeColor=#FF0000;endFill=1;rounded=0;entryX=0;entryY=0.5;entryDx=0;entryDy=0;exitX=1;exitY=0.5;exitDx=0;exitDy=0;" edge="1" parent="1" source="sL4LDpN6sf0cQuzgm8Oe-50" target="sL4LDpN6sf0cQuzgm8Oe-99">
          <mxGeometry relative="1" as="geometry">
            <mxPoint x="1270" y="643" as="sourcePoint" />
            <mxPoint x="1360" y="642" as="targetPoint" />
            <Array as="points" />
          </mxGeometry>
        </mxCell>
        <mxCell id="sL4LDpN6sf0cQuzgm8Oe-104" value="" style="endArrow=open;strokeColor=#FF0000;endFill=1;rounded=0;entryX=1;entryY=0.5;entryDx=0;entryDy=0;" edge="1" parent="1">
          <mxGeometry relative="1" as="geometry">
            <mxPoint x="1443" y="668" as="sourcePoint" />
            <mxPoint x="1072.38" y="745" as="targetPoint" />
            <Array as="points">
              <mxPoint x="1443" y="745" />
            </Array>
          </mxGeometry>
        </mxCell>
        <mxCell id="sL4LDpN6sf0cQuzgm8Oe-108" value="企業體資訊" style="swimlane;fontStyle=0;childLayout=stackLayout;horizontal=1;startSize=26;horizontalStack=0;resizeParent=1;resizeParentMax=0;resizeLast=0;collapsible=1;marginBottom=0;align=center;fontSize=14;rounded=0;swimlaneFillColor=#ffffff;shadow=0;sketch=0;glass=0;labelBackgroundColor=none;labelBorderColor=none;" vertex="1" parent="1">
          <mxGeometry x="1670" y="422" width="160" height="206" as="geometry">
            <mxRectangle x="1980" y="370" width="100" height="26" as="alternateBounds" />
          </mxGeometry>
        </mxCell>
        <mxCell id="sL4LDpN6sf0cQuzgm8Oe-109" value="企業體名稱" style="text;fillColor=none;spacingLeft=4;spacingRight=4;overflow=hidden;rotatable=0;points=[[0,0.5],[1,0.5]];portConstraint=eastwest;fontSize=12;strokeColor=#000000;" vertex="1" parent="sL4LDpN6sf0cQuzgm8Oe-108">
          <mxGeometry y="26" width="160" height="30" as="geometry" />
        </mxCell>
        <mxCell id="sL4LDpN6sf0cQuzgm8Oe-110" value="企業體代表證號" style="text;fillColor=none;spacingLeft=4;spacingRight=4;overflow=hidden;rotatable=0;points=[[0,0.5],[1,0.5]];portConstraint=eastwest;fontSize=12;strokeColor=#000000;" vertex="1" parent="sL4LDpN6sf0cQuzgm8Oe-108">
          <mxGeometry y="56" width="160" height="30" as="geometry" />
        </mxCell>
        <mxCell id="sL4LDpN6sf0cQuzgm8Oe-159" value="企業體major營運處" style="text;fillColor=none;spacingLeft=4;spacingRight=4;overflow=hidden;rotatable=0;points=[[0,0.5],[1,0.5]];portConstraint=eastwest;fontSize=12;strokeColor=#000000;" vertex="1" parent="sL4LDpN6sf0cQuzgm8Oe-108">
          <mxGeometry y="86" width="160" height="30" as="geometry" />
        </mxCell>
        <mxCell id="sL4LDpN6sf0cQuzgm8Oe-160" value="生效日期" style="text;fillColor=none;spacingLeft=4;spacingRight=4;overflow=hidden;rotatable=0;points=[[0,0.5],[1,0.5]];portConstraint=eastwest;fontSize=12;strokeColor=#000000;" vertex="1" parent="sL4LDpN6sf0cQuzgm8Oe-108">
          <mxGeometry y="116" width="160" height="30" as="geometry" />
        </mxCell>
        <mxCell id="sL4LDpN6sf0cQuzgm8Oe-161" value="是否已設緩催拆" style="text;fillColor=none;spacingLeft=4;spacingRight=4;overflow=hidden;rotatable=0;points=[[0,0.5],[1,0.5]];portConstraint=eastwest;fontSize=12;strokeColor=#000000;" vertex="1" parent="sL4LDpN6sf0cQuzgm8Oe-108">
          <mxGeometry y="146" width="160" height="30" as="geometry" />
        </mxCell>
        <mxCell id="sL4LDpN6sf0cQuzgm8Oe-111" value="內部EBS帳號設定值" style="text;spacingLeft=4;spacingRight=4;overflow=hidden;rotatable=0;points=[[0,0.5],[1,0.5]];portConstraint=eastwest;fontSize=12;" vertex="1" parent="sL4LDpN6sf0cQuzgm8Oe-108">
          <mxGeometry y="176" width="160" height="30" as="geometry" />
        </mxCell>
        <mxCell id="sL4LDpN6sf0cQuzgm8Oe-118" value="Use" style="endArrow=open;endSize=12;dashed=1;html=1;strokeColor=#FF0000;" edge="1" parent="1">
          <mxGeometry x="-0.0661" y="10" width="160" relative="1" as="geometry">
            <mxPoint x="1540" y="650" as="sourcePoint" />
            <mxPoint x="1660" y="550" as="targetPoint" />
            <mxPoint as="offset" />
          </mxGeometry>
        </mxCell>
        <mxCell id="sL4LDpN6sf0cQuzgm8Oe-130" value="Use" style="endArrow=open;endSize=12;dashed=1;html=1;strokeColor=#FF0000;" edge="1" parent="1">
          <mxGeometry x="-0.0661" y="10" width="160" relative="1" as="geometry">
            <mxPoint x="1540" y="660" as="sourcePoint" />
            <mxPoint x="1690" y="890" as="targetPoint" />
            <mxPoint as="offset" />
          </mxGeometry>
        </mxCell>
        <mxCell id="sL4LDpN6sf0cQuzgm8Oe-148" value="EBS服務項目" style="swimlane;fontStyle=0;childLayout=stackLayout;horizontal=1;startSize=40;horizontalStack=0;resizeParent=1;resizeParentMax=0;resizeLast=0;collapsible=1;marginBottom=0;align=center;fontSize=14;" vertex="1" parent="1">
          <mxGeometry x="1710" y="832.5" width="160" height="100" as="geometry">
            <mxRectangle x="1250" y="1624" width="160" height="26" as="alternateBounds" />
          </mxGeometry>
        </mxCell>
        <mxCell id="sL4LDpN6sf0cQuzgm8Oe-149" value="內部EBS帳號設定值" style="text;spacingLeft=4;spacingRight=4;overflow=hidden;rotatable=0;points=[[0,0.5],[1,0.5]];portConstraint=eastwest;fontSize=12;strokeColor=#000000;" vertex="1" parent="sL4LDpN6sf0cQuzgm8Oe-148">
          <mxGeometry y="40" width="160" height="30" as="geometry" />
        </mxCell>
        <mxCell id="sL4LDpN6sf0cQuzgm8Oe-150" value="服務項目" style="text;fillColor=none;spacingLeft=4;spacingRight=4;overflow=hidden;rotatable=0;points=[[0,0.5],[1,0.5]];portConstraint=eastwest;fontSize=12;strokeColor=#000000;" vertex="1" parent="sL4LDpN6sf0cQuzgm8Oe-148">
          <mxGeometry y="70" width="160" height="30" as="geometry" />
        </mxCell>
        <mxCell id="sL4LDpN6sf0cQuzgm8Oe-155" value="P70文字說明表示可看到企業體的EBS內部帳號設定內容, 同時底下也列出服務項目的查詢結果&lt;br&gt;&lt;br&gt;問題：由於EBS帳號設定時並未提及EBS服務項目, 欲確認是否內部EBS帳號與EBS服務項目為一對多的關係，並且因不同EBS帳號設定有不同的服務項目？" style="shape=note;whiteSpace=wrap;html=1;backgroundOutline=1;darkOpacity=0.05;rounded=1;size=20;fillColor=#f8cecc;strokeColor=#b85450;align=left;verticalAlign=top;" vertex="1" parent="1">
          <mxGeometry x="1980" y="820" width="233" height="135" as="geometry" />
        </mxCell>
        <mxCell id="sL4LDpN6sf0cQuzgm8Oe-156" value="" style="endArrow=none;dashed=1;html=1;exitX=1;exitY=0.5;exitDx=0;exitDy=0;" edge="1" parent="1" source="sL4LDpN6sf0cQuzgm8Oe-149" target="sL4LDpN6sf0cQuzgm8Oe-155">
          <mxGeometry width="50" height="50" relative="1" as="geometry">
            <mxPoint x="1610" y="952.5" as="sourcePoint" />
            <mxPoint x="1660" y="902.5" as="targetPoint" />
          </mxGeometry>
        </mxCell>
      </root>
    </mxGraphModel>
  </diagram>
</mxfile>
